<!DOCTYPE svg PUBLIC "-//W3C//DTD SVG 1.1//EN" "http://www.w3.org/Graphics/SVG/1.1/DTD/svg11.dtd">

<!-- Uploaded to: SVG Repo, www.svgrepo.com, Transformed by: SVG Repo Mixer Tools -->
<svg fill="#ff5f14" width="800px" height="800px" viewBox="0 0 1024 1024" xmlns="http://www.w3.org/2000/svg">

<g id="SVGRepo_bgCarrier" stroke-width="0"/>

<g id="SVGRepo_tracerCarrier" stroke-linecap="round" stroke-linejoin="round"/>

<g id="SVGRepo_iconCarrier">

<path d="M802.133 482.133c12.8 4.267 25.6 8.533 34.133 8.533 21.333 0 42.667-8.533 59.733-25.6 25.6-25.6 29.867-59.733 17.067-93.867-8.533-17.067-21.333-34.133-38.4-38.4-34.133-12.8-68.267-8.533-93.867 17.067s-29.867 59.733-17.067 93.867c8.533 17.067 21.333 29.867 38.4 38.4zm8.534-102.4c8.533-8.533 17.067-12.8 29.867-12.8 4.267 0 12.8 0 17.067 4.267 8.533 4.267 12.8 8.533 17.067 17.067 8.533 17.067 4.267 34.133-8.533 46.933s-29.867 17.067-46.933 8.533c-8.533-4.267-12.8-8.533-17.067-17.067-8.533-17.067-4.267-34.133 8.533-46.933zm179.2 256c-89.6-89.6-234.667-89.6-324.267 0-8.533 8.533-8.533 21.333 0 29.867s21.333 8.533 29.867 0c72.533-72.533 192-72.533 264.533 0 4.267 4.267 8.533 4.267 17.067 4.267 4.267 0 12.8 0 17.067-4.267s4.267-21.333-4.267-29.867zM610.133 311.467H486.4c-12.8 0-21.333 8.533-21.333 21.333v123.733c0 12.8 8.533 21.333 21.333 21.333h123.733c12.8 0 21.333-8.533 21.333-21.333V332.8c0-8.533-8.533-21.333-21.333-21.333zM588.8 435.2h-81.067v-81.067H588.8V435.2zm-226.133-81.067c4.267 4.267 8.533 4.267 12.8 4.267s12.8-4.267 17.067-8.533c81.067-89.6 81.067-234.667 0-324.267-8.533-4.267-21.333-8.533-29.867 0s-8.533 21.333 0 29.867c68.267 72.533 68.267 192 0 264.533-8.533 12.8-8.533 25.6 0 34.133zm-51.2 46.934c-12.8-8.533-25.6-17.067-38.4-12.8-17.067 4.267-25.6 12.8-34.133 29.867L25.601 925.867c-8.533 25.6 0 38.4 4.267 42.667s8.533 8.533 21.333 8.533c4.267 0 12.8 0 21.333-4.267l507.733-213.333c12.8-4.267 25.6-17.067 25.6-29.867s-4.267-29.867-12.8-38.4l-281.6-290.133zM140.8 763.733l89.6 89.6L72.533 921.6 140.8 763.733zm132.267 72.534L166.4 729.6c-4.267-4.267-4.267-4.267-8.533-4.267L281.6 435.2l281.6 281.6-290.133 119.467z"/>

</g>

</svg>
