<?xml version="1.0" encoding="UTF-8"?>
<svg version="1.1" xmlns="http://www.w3.org/2000/svg" width="512" height="512">
<path d="M0 0 C1.24959503 -0.00540298 2.49919006 -0.01080597 3.78665161 -0.01637268 C7.19804249 -0.02670662 10.6084568 -0.01919423 14.01976132 -0.00266147 C17.59772672 0.01123919 21.17566416 0.00472338 24.75364685 0.00120544 C30.75983812 -0.00149239 36.76582906 0.01194315 42.77197266 0.03515625 C49.70726622 0.06177555 56.64222521 0.06350772 63.57755238 0.05176789 C70.26193413 0.04097472 76.94619535 0.04718842 83.63056755 0.06132317 C86.46975505 0.06706844 89.30885392 0.06701185 92.14804268 0.06225777 C96.1144481 0.05658284 100.08052106 0.07584094 104.046875 0.09765625 C105.2205513 0.0931546 106.3942276 0.08865295 107.60346985 0.08401489 C117.68603505 0.17617805 117.68603505 0.17617805 122.45874023 3.50170898 C125.72490172 7.47406754 126.7518546 10.48352084 127.45874023 15.50170898 C143.03586237 15.46454853 158.61274548 15.40469716 174.18966293 15.31780624 C181.42226282 15.27799095 188.6547535 15.24561122 195.88745117 15.23071289 C202.19123639 15.21770915 208.49478159 15.19077761 214.79843163 15.14709592 C218.13653757 15.1244513 221.47408376 15.11087724 224.81230927 15.10982513 C228.53824665 15.10746922 232.26323848 15.0804985 235.98901367 15.04760742 C237.65057495 15.05515297 237.65057495 15.05515297 239.34570312 15.06285095 C240.36090027 15.04893814 241.37609741 15.03502533 242.42205811 15.02069092 C243.3032922 15.01700375 244.18452629 15.01331657 245.09246445 15.00951767 C248.20818772 14.34087568 249.37240873 12.84143303 251.45874023 10.50170898 C256.11938037 8.17138892 263.05556287 9.18978406 268.23364258 9.15161133 C269.8766906 9.13508037 271.51966755 9.10782769 273.16235352 9.06958008 C275.53756819 9.01458719 277.9110982 8.99290345 280.28686523 8.97827148 C281.01520569 8.95560211 281.74354614 8.93293274 282.49395752 8.90957642 C286.29194987 8.92517766 288.87014528 9.4244513 291.84448242 11.72192383 C297.66316669 17.90903058 296.7992816 24.77278201 296.77441406 32.79394531 C296.77125464 34.92947473 296.79473818 37.06361617 296.82006836 39.19897461 C296.82234186 40.56941559 296.82304461 41.93986025 296.82202148 43.31030273 C296.82649292 45.16353149 296.82649292 45.16353149 296.83105469 47.05419922 C296.34543106 51.55091483 294.8357108 54.83786955 291.95874023 58.31420898 C287.14440018 62.12556152 278.91763583 60.80690131 273.03564453 60.85180664 C271.44793019 60.86835378 269.86028997 60.89562806 268.27294922 60.93383789 C265.97381293 60.98883543 263.67641597 61.01051214 261.37670898 61.02514648 C260.32171455 61.05915054 260.32171455 61.05915054 259.2454071 61.09384155 C255.30579445 61.07709751 253.79026814 60.83212962 250.9551239 58.00645447 C246.51981628 54.15263698 241.36586249 54.79836287 235.76196289 54.84228516 C234.59065826 54.83180145 233.41935364 54.82131775 232.21255493 54.81051636 C228.34903484 54.78176315 224.48641068 54.78805883 220.62280273 54.79467773 C217.94091014 54.78156287 215.25909917 54.76650318 212.57723999 54.74885559 C206.24502647 54.71144836 199.9130277 54.6992696 193.58071458 54.69623119 C186.36900124 54.69153671 179.15750253 54.65860105 171.94588399 54.62333333 C157.11688034 54.55144414 142.2879151 54.51488932 127.45874023 54.50170898 C127.48194336 55.59225586 127.50514648 56.68280273 127.52905273 57.80639648 C127.43958821 62.50825431 126.36136082 65.52447582 123.06420898 68.95092773 C117.65129623 73.73347596 112.93110717 73.67069953 105.97436523 73.81811523 C105.15877136 73.83889633 104.34317749 73.85967743 103.50286865 73.88108826 C100.90490919 73.94632195 98.3068511 74.00534666 95.70874023 74.06420898 C93.94440724 74.10741912 92.18008411 74.15103421 90.41577148 74.19506836 C86.0968614 74.30197643 81.77785239 74.40331726 77.45874023 74.50170898 C73.81197061 84.10417437 72.02829537 95.01205093 76.33374023 104.75170898 C77.01640805 106.01590864 77.723491 107.26734896 78.45874023 108.50170898 C80.57211808 112.27405238 80.63314775 114.25577414 79.45874023 118.50170898 C78.27124023 120.37670898 78.27124023 120.37670898 76.45874023 121.50170898 C73.58374023 122.00170898 73.58374023 122.00170898 70.45874023 121.50170898 C62.74160152 115.62198425 59.94339523 105.80988819 58.64624023 96.56420898 C58.0156196 89.03880278 59.83627034 81.80740677 61.45874023 74.50170898 C58.7154902 73.71483954 58.7154902 73.71483954 55.45874023 74.50170898 C52.950152 77.30234182 51.29907403 80.58030298 49.52124023 83.87670898 C48.97346924 84.84809814 48.42569824 85.8194873 47.86132812 86.8203125 C46.6760353 88.92274666 45.49954514 91.03016203 44.33081055 93.1418457 C42.39446729 96.61706165 40.41671362 100.0650893 38.41967773 103.50561523 C38.08344894 104.08504883 37.74722015 104.66448242 37.40080261 105.26147461 C36.8995562 106.12506592 36.8995562 106.12506592 36.38818359 107.00610352 C33.90712361 111.2821993 31.4366403 115.56408378 28.99023438 119.86010742 C28.05676214 121.47020939 27.09830118 123.06657133 26.09716797 124.63549805 C23.91646651 128.08024111 23.91646651 128.08024111 23.68920898 132.05639648 C24.0050293 132.82209961 24.32084961 133.58780273 24.64624023 134.37670898 C26.8980375 140.63803555 28.28449084 145.74920696 26.33374023 152.25170898 C23.78337383 156.67234408 21.38210405 159.86058771 16.45874023 161.50170898 C14.68560173 161.5838069 12.90953249 161.60917192 11.13452148 161.59936523 C10.10649414 161.59614258 9.0784668 161.59291992 8.01928711 161.58959961 C6.94743164 161.5812207 5.87557617 161.5728418 4.77124023 161.56420898 C3.6877832 161.55969727 2.60432617 161.55518555 1.48803711 161.55053711 C-1.18845061 161.53874641 -3.86482753 161.52228962 -6.54125977 161.50170898 C-6.50407567 178.08736345 -6.4441895 194.67275694 -6.35735703 211.25821877 C-6.31756609 218.9593401 -6.28517393 226.66035925 -6.27026367 234.36157227 C-6.25724737 241.07481859 -6.23028349 247.78784006 -6.1866467 254.50095975 C-6.16403108 258.05478967 -6.14834912 261.60834226 -6.14937592 265.16225052 C-6.15026129 269.13191752 -6.12000437 273.10101841 -6.0871582 277.07055664 C-6.09218857 278.24587952 -6.09721893 279.42120239 -6.10240173 280.63214111 C-6.02252636 286.862767 -5.8103848 290.80559709 -1.54125977 295.50170898 C2.25054543 297.99346668 5.95057803 297.71365782 10.30249023 297.11889648 C13.66105453 296.1575683 15.35442529 294.1978625 17.45874023 291.50170898 C18.86682412 288.68554121 18.59906309 286.32514349 18.61645508 283.17529297 C18.6215358 282.52621475 18.62661652 281.87713654 18.6318512 281.20838928 C18.64256178 279.79627779 18.65117926 278.38414925 18.65797043 276.97201347 C18.66976953 274.73036268 18.68922891 272.48890368 18.71109009 270.24732971 C18.77264282 263.87279748 18.82657403 257.49828111 18.86010742 251.12353516 C18.88117089 247.22421078 18.91657511 243.32523022 18.96086502 239.42610359 C18.97494321 237.94593444 18.98372881 236.46570439 18.9869194 234.98547173 C19.01260094 224.20321812 19.67653137 215.02423808 26.64624023 206.29467773 C32.13371423 200.866336 38.8041629 198.36857863 46.41088867 198.38818359 C47.39160339 198.38825912 48.37231812 198.38833466 49.38275146 198.38841248 C50.43392151 198.39357376 51.48509155 198.39873505 52.56811523 198.40405273 C53.65006165 198.40546768 54.73200806 198.40688263 55.84674072 198.40834045 C59.30076874 198.4139358 62.75473182 198.42648748 66.20874023 198.43920898 C68.55118721 198.44422458 70.89363521 198.44878739 73.23608398 198.45288086 C78.97699154 198.46390371 84.71786125 198.48063724 90.45874023 198.50170898 C90.52249847 197.74820663 90.58625671 196.99470428 90.65194702 196.21836853 C90.78133163 194.73428246 90.78133163 194.73428246 90.91333008 193.22021484 C90.99771332 192.23983749 91.08209656 191.25946014 91.16903687 190.24937439 C92.78471651 174.92560691 101.49177219 161.86484099 112.45874023 151.50170898 C115.67028019 148.948348 118.97085106 146.65892447 122.45874023 144.50170898 C123.31854492 143.94483398 124.17834961 143.38795898 125.06420898 142.81420898 C127.45874023 141.50170898 127.45874023 141.50170898 130.45874023 141.50170898 C130.43779297 140.27129883 130.4168457 139.04088867 130.39526367 137.77319336 C130.32252424 133.18119069 130.27681753 128.58923833 130.23901367 123.99682617 C130.21897527 122.014317 130.19173671 120.03186635 130.15698242 118.04956055 C130.1081207 115.18971257 130.08569351 112.33065018 130.06811523 109.47045898 C130.04747009 108.59305054 130.02682495 107.71564209 130.0055542 106.81164551 C130.00321419 100.30361345 131.31781237 94.81465359 135.90643311 89.97473145 C140.69467249 85.8166276 144.17727568 84.25613512 150.47729492 84.21118164 C151.69245789 84.19842194 152.90762085 84.18566223 154.15960693 84.17251587 C155.47003967 84.17029022 156.78047241 84.16806458 158.13061523 84.16577148 C159.49578998 84.15933941 160.86096336 84.15261074 162.22613525 84.14559937 C165.08755688 84.13363305 167.94885786 84.12991767 170.81030273 84.13110352 C174.4597076 84.13130623 178.10832951 84.10405221 181.75754929 84.0695591 C184.57846558 84.04720869 187.39919622 84.0432685 190.22019196 84.04432297 C192.21421588 84.04084372 194.20818184 84.01922528 196.2020874 83.9972229 C204.57804133 84.03920092 210.5399845 84.68886557 216.77124023 90.75170898 C220.9141684 97.50314748 221.8956826 103.28132605 221.75170898 111.03295898 C221.74746414 111.9094812 221.7432193 112.78600342 221.73884583 113.68908691 C221.72219153 116.46028721 221.68456533 119.23073235 221.64624023 122.00170898 C221.63117622 123.8923234 221.61749084 125.78294934 221.60522461 127.67358398 C221.57233163 132.28324537 221.52064279 136.8923496 221.45874023 141.50170898 C222.39951416 141.80407471 223.34028809 142.10644043 224.30957031 142.41796875 C237.91066519 147.09858432 248.3971216 159.79378688 254.86889648 172.19702148 C258.97521352 180.73251096 260.62176943 188.67133272 260.57226562 198.15942383 C260.57241165 198.90157135 260.57255768 199.64371887 260.57270813 200.40835571 C260.57201562 202.84314981 260.56425442 205.27786587 260.55639648 207.71264648 C260.55452995 209.40800942 260.55310716 211.1033729 260.55210876 212.79873657 C260.54830212 217.24730942 260.53848774 221.6958493 260.52740479 226.14440918 C260.51715074 230.68928583 260.5126026 235.23416784 260.50756836 239.77905273 C260.49686373 248.68661925 260.47980967 257.59416137 260.45874023 266.50170898 C261.18464355 266.48599854 261.91054688 266.47028809 262.65844727 266.45410156 C265.96679812 266.39150543 269.27502405 266.35263987 272.58374023 266.31420898 C274.2969043 266.27650391 274.2969043 266.27650391 276.04467773 266.23803711 C282.77448778 266.17934691 287.89133616 266.24782973 293.10327148 271.00170898 C296.75078836 275.68614537 297.58296461 278.66303133 297.63574219 284.5144043 C297.64857742 285.75289124 297.66141266 286.99137817 297.67463684 288.26739502 C297.6828057 289.62153726 297.69024915 290.97568404 297.69702148 292.32983398 C297.70313478 293.35517872 297.70313478 293.35517872 297.70937157 294.40123749 C297.7302158 298.02082515 297.74452341 301.64037511 297.75390625 305.26000977 C297.76495486 308.98683885 297.79934058 312.71306826 297.83907795 316.43968582 C297.86530533 319.31544048 297.87360354 322.1910537 297.87718773 325.06691742 C297.88203959 326.43996979 297.89361357 327.81301644 297.91222572 329.18595123 C298.02595712 338.13300387 297.49672672 343.17890861 292.08374023 350.31420898 C287.12169051 353.94032224 281.40454581 353.78933786 275.54615784 353.7624054 C274.21668016 353.76814372 274.21668016 353.76814372 272.86034435 353.77399796 C269.89641889 353.78430015 266.93268815 353.78034109 263.96875 353.77636719 C261.84131695 353.78071518 259.71388546 353.78589862 257.5864563 353.79185486 C251.81171472 353.8052462 246.03703859 353.8058234 240.26228452 353.80329156 C235.4411011 353.80222202 230.61993093 353.80710475 225.79875034 353.81189698 C214.42523104 353.82299248 203.05174476 353.82342922 191.67822266 353.81738281 C179.94481292 353.81134102 168.21152303 353.82365921 156.47813374 353.84495288 C146.40324437 353.86256445 136.32839316 353.86857097 126.25348896 353.86531514 C120.2366176 353.86350155 114.21983175 353.86614613 108.20297432 353.88002968 C102.5452019 353.89259621 96.88761647 353.89067492 91.22984695 353.87761879 C89.15419515 353.87525097 87.07853022 353.87799502 85.00289345 353.88624191 C82.16781376 353.89669347 79.33336336 353.88862134 76.49830627 353.87593079 C75.6784531 353.88330507 74.85859993 353.89067936 74.01390272 353.8982771 C67.79008184 353.83973351 63.04191783 352.66599292 58.14624023 348.56420898 C52.47030331 341.62695274 53.29939796 333.16634081 53.29077148 324.63842773 C53.28577888 322.91859428 53.28577888 322.91859428 53.28068542 321.16401672 C53.27563193 318.74248657 53.27327661 316.32094948 53.2734375 313.89941406 C53.27125414 310.21269128 53.25308989 306.52626939 53.23413086 302.83959961 C53.23119592 300.48087667 53.2292118 298.12215231 53.22827148 295.76342773 C53.22108597 294.66939133 53.21390045 293.57535492 53.20649719 292.44816589 C53.25119824 277.32245708 53.25119824 277.32245708 57.70874023 271.62670898 C68.69351441 263.13847439 73.65260199 266.50170898 90.45874023 266.50170898 C90.45874023 248.68170898 90.45874023 230.86170898 90.45874023 212.50170898 C82.82749023 212.58420898 75.19624023 212.66670898 67.33374023 212.75170898 C64.93463379 212.7675 62.53552734 212.78329102 60.0637207 212.79956055 C58.15109868 212.82893933 56.23849812 212.85976674 54.32592773 212.89233398 C53.34180908 212.89346191 52.35769043 212.89458984 51.34375 212.89575195 C45.60690257 213.01499694 41.84365212 213.41640856 37.45874023 217.50170898 C34.78710733 221.94302561 34.08837231 225.20435855 34.10571289 230.3581543 C34.1035527 231.0159639 34.10139252 231.6737735 34.09916687 232.35151672 C34.09609497 233.77066354 34.09964101 235.1898373 34.10918045 236.60895538 C34.12301232 238.86400341 34.11642598 241.11818041 34.1043396 243.37322998 C34.07351592 249.7811875 34.0781691 256.18893849 34.09838867 262.59692383 C34.10937568 266.52686732 34.09596877 270.45615632 34.06849289 274.38600922 C34.06309255 275.87376252 34.06701238 277.36158294 34.08089066 278.84928131 C34.17018569 288.5365656 33.60818561 296.99655205 26.68496704 304.39801025 C19.81424113 310.76272952 12.5791171 312.89748068 3.40405273 312.77514648 C-4.04960397 312.08316244 -9.71595572 308.98662129 -14.97094727 303.77124023 C-20.40194921 295.92195633 -21.10863082 288.84774763 -20.99536133 279.45458984 C-20.99594543 278.17555786 -20.99652954 276.89652588 -20.99713135 275.57873535 C-20.99827152 272.09774474 -20.97487692 268.61731382 -20.94683552 265.13645244 C-20.92170428 261.48899273 -20.91947069 257.84151792 -20.91473389 254.19398499 C-20.90233832 247.29867313 -20.86956355 240.4036172 -20.82933593 233.50841767 C-20.78451119 225.65349744 -20.76260438 217.79856452 -20.74255419 209.94354808 C-20.70082744 193.79611896 -20.63054264 177.64894671 -20.54125977 161.50170898 C-21.11046143 161.52265625 -21.67966309 161.54360352 -22.26611328 161.56518555 C-24.87847793 161.64901892 -27.4905586 161.70057717 -30.10375977 161.75170898 C-30.99901367 161.78522461 -31.89426758 161.81874023 -32.81665039 161.85327148 C-38.9735814 161.94348293 -42.52335121 161.13376213 -47.54125977 157.50170898 C-49.57250977 154.80249023 -49.57250977 154.80249023 -51.04125977 151.81420898 C-51.79922852 150.3543457 -51.79922852 150.3543457 -52.57250977 148.86499023 C-54.62695049 141.73243596 -52.92509818 136.77095148 -49.43579102 130.34155273 C-48.09010275 128.02991838 -46.73052015 125.73193233 -45.35375977 123.43920898 C-44.6268343 122.20197192 -43.90143277 120.96383834 -43.17749023 119.72485352 C-41.69831016 117.19892188 -40.21059897 114.67835985 -38.71459961 112.16235352 C-35.49879387 106.75313679 -32.33544342 101.31332281 -29.16625977 95.87670898 C-28.59665527 94.90241943 -28.02705078 93.92812988 -27.44018555 92.92431641 C-23.82091786 86.72727805 -20.23904875 80.51118957 -16.72875977 74.25170898 C-16.31384277 73.51871582 -15.89892578 72.78572266 -15.47143555 72.03051758 C-11.64426869 65.15016222 -10.57185715 59.34002154 -11.54125977 51.50170898 C-13.57314598 44.68891404 -16.29391491 38.16511353 -19.27563477 31.71655273 C-22.72806863 24.16229864 -25.58347889 17.70002317 -22.87329102 9.47436523 C-18.1649037 -0.25081905 -9.43641284 -0.07786522 0 0 Z M141.70874023 190.18920898 C131.83096204 202.15021529 130.31579847 214.61154028 131.45874023 229.50170898 C133.65162971 240.80962096 141.11868294 250.92845502 150.45874023 257.50170898 C162.29031604 264.39887565 174.27315151 266.62069671 187.76342773 263.81420898 C199.49181157 259.82722298 208.88090356 251.92866437 215.45874023 241.50170898 C221.42199393 228.95245675 222.31284616 216.78230428 217.72827148 203.48217773 C212.51488671 191.24275441 202.70817375 182.49460796 190.63452148 177.26342773 C173.14034632 171.13889604 154.16371742 177.10876352 141.70874023 190.18920898 Z M69.45874023 280.50170898 C67.74050933 282.21993989 68.33119702 284.48768647 68.3293457 286.83178711 C68.32619354 287.96966675 68.32304138 289.10754639 68.3197937 290.27990723 C68.32181793 291.51841431 68.32384216 292.75692139 68.32592773 294.03295898 C68.32497101 295.29434692 68.32401428 296.55573486 68.32302856 297.85534668 C68.32234649 300.52868036 68.32370494 303.20192335 68.32836914 305.87524414 C68.33406643 309.30877589 68.33078723 312.74222948 68.32479668 316.17575836 C68.32032261 319.44066141 68.3234514 322.70555491 68.32592773 325.97045898 C68.3239035 327.20896606 68.32187927 328.44747314 68.3197937 329.72351074 C68.32294586 330.86139038 68.32609802 331.99927002 68.3293457 333.17163086 C68.3301413 334.17899292 68.33093689 335.18635498 68.33175659 336.22424316 C68.203043 338.46822692 68.203043 338.46822692 69.45874023 339.50170898 C76.38874023 339.50170898 83.31874023 339.50170898 90.45874023 339.50170898 C90.45874023 320.03170898 90.45874023 300.56170898 90.45874023 280.50170898 C83.52874023 280.50170898 76.59874023 280.50170898 69.45874023 280.50170898 Z M260.45874023 280.50170898 C260.45874023 299.97170898 260.45874023 319.44170898 260.45874023 339.50170898 C267.71874023 339.50170898 274.97874023 339.50170898 282.45874023 339.50170898 C284.17697114 337.78347808 283.58628344 335.51573149 283.58813477 333.17163086 C283.59128693 332.03375122 283.59443909 330.89587158 283.59768677 329.72351074 C283.59566254 328.48500366 283.59363831 327.24649658 283.59155273 325.97045898 C283.59250946 324.70907104 283.59346619 323.44768311 283.5944519 322.14807129 C283.59513398 319.47473761 283.59377553 316.80149462 283.58911133 314.12817383 C283.58341404 310.69464208 283.58669324 307.26118849 283.59268379 303.82765961 C283.59715785 300.56275655 283.59402907 297.29786305 283.59155273 294.03295898 C283.59357697 292.7944519 283.5956012 291.55594482 283.59768677 290.27990723 C283.59453461 289.14202759 283.59138245 288.00414795 283.58813477 286.83178711 C283.58733917 285.82442505 283.58654358 284.81706299 283.58572388 283.7791748 C283.71443747 281.53519105 283.71443747 281.53519105 282.45874023 280.50170898 C275.19874023 280.50170898 267.93874023 280.50170898 260.45874023 280.50170898 Z " fill="#FF5F13" transform="translate(91.541259765625,94.498291015625)"/>
<path d="M0 0 C1.02931641 0.20496094 2.05863281 0.40992188 3.11914062 0.62109375 C15.77880426 3.26352829 26.37517958 7.1817254 33.92578125 18.3125 C36.54341176 23.14958624 38.11495986 27.18524082 37.1875 32.75 C35.76223604 36.96209293 33.87626713 40.02498197 30.8125 43.25 C23.61925575 46.22651486 15.27086844 45.83044454 7.9375 43.3125 C-1.7875665 38.76136051 -8.15528304 30.56644202 -13.8125 21.75 C-14.61961126 20.58140521 -15.4296884 19.41485518 -16.2421875 18.25 C-17.07909177 17.02149137 -17.91503622 15.79232832 -18.75 14.5625 C-19.15226807 13.99249268 -19.55453613 13.42248535 -19.96899414 12.83520508 C-22.72154349 8.68329825 -23.35537573 5.68413716 -22.8125 0.75 C-17.75773536 -5.51790815 -6.64346041 -1.40685044 0 0 Z M-0.8125 14.75 C2.53603321 21.58658864 7.06727859 26.43865628 13.75 30.1875 C16.93776376 30.92313779 19.92949254 30.877765 23.1875 30.75 C22.12687707 25.80042632 20.2387884 23.21268822 16.390625 20.140625 C11.12647706 16.81786496 5.40530594 14.75 -0.8125 14.75 Z " fill="#FF5E13" transform="translate(420.8125,149.25)"/>
<path d="M0 0 C3.48148676 3.96169183 4.37016744 7.53309129 4.2734375 12.82421875 C3.36803515 20.02863462 -1.77326236 26.27338172 -7 31 C-15.38402872 37.17770537 -24.99625121 39.05221835 -35 41 C-36.15886719 41.23847656 -37.31773437 41.47695312 -38.51171875 41.72265625 C-43.93279332 42.74973562 -48.63572722 43.51599013 -54 42 C-56.33919425 38.49120863 -56.3886376 37.12871051 -56 33 C-54.87353516 30.45800781 -54.87353516 30.45800781 -53.2890625 27.953125 C-52.41858276 26.56855103 -52.41858276 26.56855103 -51.53051758 25.15600586 C-50.90169678 24.19702393 -50.27287598 23.23804199 -49.625 22.25 C-48.66533325 20.77382202 -48.66533325 20.77382202 -47.6862793 19.26782227 C-39.74404478 7.29823083 -32.10461877 -0.89070674 -17.875 -4.875 C-10.82240029 -5.18163477 -5.61643697 -4.68036414 0 0 Z M-24 13 C-30.1371646 18.72882287 -30.1371646 18.72882287 -34 26 C-26.0623333 24.76380601 -18.58149973 23.24435398 -13.0625 17 C-11.33243883 14.48354739 -10.34399425 12.98128346 -10 10 C-15.28423633 7.95448916 -19.52404292 10.08340861 -24 13 Z " fill="#FF5E14" transform="translate(454,69)"/>
<path d="M0 0 C4.58305662 3.70872087 6.98734104 7.91465136 7.9375 13.734375 C8.06945422 18.51771565 6.60921688 22.08281978 3.55078125 25.7265625 C-3.62366565 32.5163654 -11.80756342 33.59604954 -21.41015625 33.33984375 C-27.32035703 32.78033617 -32.47796969 31.12612932 -38 29 C-38.7822998 28.69964844 -39.56459961 28.39929688 -40.37060547 28.08984375 C-42.96469477 27.08166273 -45.54638272 26.0470852 -48.125 25 C-48.95539795 24.66806641 -49.7857959 24.33613281 -50.64135742 23.99414062 C-58.17194985 20.83056151 -58.17194985 20.83056151 -60 17 C-59.9375 13.4375 -59.9375 13.4375 -59 10 C-56.15166476 7.40551696 -53.03720764 6.01842111 -49.5 4.5546875 C-47.9221875 3.89919922 -47.9221875 3.89919922 -46.3125 3.23046875 C-44.6728125 2.55951172 -44.6728125 2.55951172 -43 1.875 C-41.906875 1.41996094 -40.81375 0.96492188 -39.6875 0.49609375 C-27.5065052 -4.53453768 -11.87849669 -7.76582569 0 0 Z M-35 14 C-30.81745537 18.18254463 -24.63042933 19.19899299 -18.875 19.375 C-14.28696121 19.24596141 -11.04801758 18.11200917 -7 16 C-7.11306697 14.04105639 -7.11306697 14.04105639 -8 12 C-17.08796716 7.47989024 -26.18006237 10.17859569 -35 14 Z " fill="#FF5E14" transform="translate(466,115)"/>
<path d="M0 0 C2.60361488 1.61603682 2.9560467 2.84921286 3.81640625 5.80078125 C4 9 4 9 2.3828125 11.59765625 C1.63773437 12.41105469 0.89265625 13.22445313 0.125 14.0625 C-3.70600665 18.28728607 -5.05094824 20.90142064 -4.95703125 26.61328125 C-4.90933594 27.50402344 -4.86164063 28.39476562 -4.8125 29.3125 C-4.78329817 34.73673921 -5.63005747 38.67981205 -9 43 C-14.88608818 48.36436673 -20.1276449 49.35716044 -27.984375 49.28125 C-33.39085652 48.77701856 -36.36365173 46.59089415 -40.25 42.8125 C-43.32027174 37.87813471 -45.41840571 32.77182002 -44.9375 26.875 C-43.12856051 19.39805012 -39.70705417 15.13083878 -33.296875 10.8671875 C-30.01477344 9.62802671 -27.22799693 10.15236058 -23.75 10.4375 C-19.6304432 10.63196417 -16.76259689 10.55562212 -13.30859375 8.0390625 C-11.36963013 5.77515286 -9.68446929 3.45477756 -8 1 C-5.20129973 -0.39935013 -3.09501208 -0.25265405 0 0 Z M-30 26 C-30.33333333 29.5 -30.33333333 29.5 -30 33 C-28.12061828 35.29827312 -28.12061828 35.29827312 -25.0625 35.3125 C-22.08348132 35.20931345 -22.08348132 35.20931345 -20.0625 33.9375 C-18.35212205 30.81857551 -19.19486137 28.34442199 -20 25 C-23.65430271 23.17284864 -27.09022516 23.09022516 -30 26 Z " fill="#FF5F14" transform="translate(292,285)"/>
</svg>
